<svg id="eQkzxr0PFyB1" xmlns="http://www.w3.org/2000/svg" xmlns:xlink="http://www.w3.org/1999/xlink" viewBox="0 0 100 100" shape-rendering="geometricPrecision" text-rendering="geometricPrecision"><style><![CDATA[#eQkzxr0PFyB2_to {animation: eQkzxr0PFyB2_to__to 1000ms linear 1 normal forwards}@keyframes eQkzxr0PFyB2_to__to { 0% {transform: translate(19.938617px,36.512294px)} 20% {transform: translate(50px,36.662487px)} 40% {transform: translate(69.938617px,36.662487px)} 70% {transform: translate(50px,36.81268px)} 100% {transform: translate(50px,36.81268px)}}]]></style><g id="eQkzxr0PFyB2_to" transform="translate(19.938617,36.512294)"><g transform="translate(-39.333196,-34.709969)"><ellipse rx="5.280244" ry="8.272382" transform="matrix(.85 0 0 0.85 23.882786 30.283405)" fill="#3f3636" stroke-width="0"/><ellipse rx="5.280244" ry="8.272382" transform="matrix(3.002946 0 0 1.085101 38.927317 46.2913)" fill="#3f3636" stroke-width="0"/><ellipse rx="5.280244" ry="8.272382" transform="matrix(1.212237-1.491274 0.773767 0.628985 34.771891 40.746547)" fill="#3f3636" stroke-width="0"/><ellipse rx="5.280244" ry="8.272382" transform="matrix(1.000789-1.231154 0.871564 0.708483 43.098297 39.448957)" fill="#3f3636" stroke-width="0"/><ellipse rx="5.280244" ry="8.272382" transform="matrix(.85 0 0 0.85 54.783604 29.042548)" fill="#3f3636" stroke-width="0"/><ellipse rx="5.280244" ry="8.272382" transform="matrix(.8 0 0 0.8 33.589693 20.770166)" fill="#3f3636" stroke-width="0"/><ellipse rx="5.280244" ry="8.272382" transform="matrix(.8 0 0 0.8 44.719756 20.770166)" fill="#3f3636" stroke-width="0"/></g></g></svg>