<?xml version="1.0" standalone="no"?>
<!DOCTYPE svg PUBLIC "-//W3C//DTD SVG 20010904//EN"
 "http://www.w3.org/TR/2001/REC-SVG-20010904/DTD/svg10.dtd">
<svg version="1.0" xmlns="http://www.w3.org/2000/svg"
 width="1118.000000pt" height="247.000000pt" viewBox="0 0 1118.000000 247.000000"
 preserveAspectRatio="xMidYMid meet">
<metadata>
Created by potrace 1.16, written by Peter Selinger 2001-2019
</metadata>
<g transform="translate(0.000000,247.000000) scale(0.100000,-0.100000)"
fill="#000000" stroke="none">
<path d="M8401 2400 c-165 -35 -231 -185 -127 -291 55 -56 101 -74 196 -74
109 1 165 25 210 93 102 154 -65 317 -279 272z m187 -74 c80 -42 93 -135 28
-192 -20 -17 -54 -36 -77 -43 -72 -22 -187 6 -230 55 -25 29 -39 82 -30 107
35 90 202 129 309 73z"/>
<path d="M1028 2337 c-96 -27 -167 -101 -168 -173 0 -58 52 -129 125 -167 60
-32 191 -31 259 2 140 70 140 255 -2 321 -57 28 -150 35 -214 17z m200 -71
c80 -42 93 -135 28 -192 -98 -85 -270 -61 -324 46 -24 49 -22 72 12 108 60 67
195 85 284 38z"/>
<path d="M4830 2320 c-146 -31 -219 -162 -149 -265 49 -71 143 -110 246 -102
86 7 148 39 184 95 99 156 -67 316 -281 272z m188 -74 c80 -42 93 -135 28
-192 -98 -85 -270 -61 -324 46 -24 49 -22 72 12 108 60 67 195 85 284 38z"/>
<path d="M7872 2237 c-56 -17 -118 -81 -142 -144 -48 -129 -59 -339 -29 -548
17 -113 35 -157 86 -208 51 -52 112 -77 183 -77 78 0 132 26 217 102 43 38
119 98 168 134 118 83 128 92 155 137 28 48 30 134 4 175 -9 15 -101 111 -203
213 -165 165 -193 188 -244 207 -62 24 -140 27 -195 9z m194 -66 c26 -12 100
-79 218 -199 99 -99 183 -186 187 -194 17 -26 10 -94 -14 -129 -12 -19 -63
-61 -112 -94 -49 -33 -126 -94 -171 -136 -133 -123 -227 -140 -332 -61 -69 52
-92 135 -99 355 -6 181 5 292 37 362 23 51 79 105 122 115 43 11 113 3 164
-19z"/>
<path d="M512 2177 c-18 -5 -53 -28 -77 -49 -53 -47 -80 -112 -101 -247 -24
-156 -1 -445 42 -536 24 -51 92 -112 142 -130 110 -37 199 -12 309 87 43 38
119 98 168 134 118 83 128 92 155 137 25 43 30 128 10 169 -7 12 -99 109 -204
214 -170 170 -197 193 -249 212 -62 24 -140 27 -195 9z m193 -66 c26 -12 98
-75 200 -177 209 -210 215 -217 215 -269 0 -61 -32 -101 -135 -170 -49 -33
-126 -94 -171 -136 -133 -123 -227 -140 -332 -61 -69 52 -92 134 -99 355 -6
180 5 291 37 362 23 51 79 105 122 115 43 11 113 3 163 -19z"/>
<path d="M4308 2158 c-58 -15 -123 -79 -148 -145 -59 -158 -62 -469 -5 -660
19 -63 90 -136 153 -158 112 -38 205 -10 319 95 43 39 116 98 163 130 111 77
122 88 150 133 28 48 30 134 4 175 -9 15 -101 111 -203 213 -165 165 -193 188
-244 207 -61 23 -127 27 -189 10z m187 -67 c25 -11 100 -78 205 -182 203 -203
210 -211 210 -264 0 -61 -32 -101 -135 -170 -49 -33 -126 -94 -171 -136 -133
-123 -227 -140 -332 -61 -69 52 -92 135 -99 355 -6 181 5 292 37 362 23 51 79
105 122 115 43 11 113 3 163 -19z"/>
<path d="M8715 2091 c-120 -30 -188 -133 -150 -229 34 -85 119 -134 235 -135
88 -2 150 23 199 78 109 125 -2 297 -188 294 -37 -1 -79 -4 -96 -8z m197 -68
c41 -24 78 -77 78 -112 0 -107 -171 -168 -296 -106 -27 13 -57 38 -67 54 -19
32 -22 82 -7 111 11 21 67 58 108 71 43 14 147 4 184 -18z"/>
<path d="M1355 2031 c-120 -30 -188 -133 -150 -229 34 -85 119 -134 235 -135
88 -2 150 23 199 78 109 125 -2 297 -188 294 -37 -1 -79 -4 -96 -8z m197 -68
c18 -10 43 -34 55 -53 106 -156 -204 -270 -330 -121 -28 34 -36 86 -17 121 11
21 67 58 108 71 43 14 147 4 184 -18z"/>
<path d="M5145 2011 c-111 -27 -179 -120 -155 -211 25 -94 118 -153 240 -153
88 -1 152 25 199 79 109 124 -2 296 -188 293 -37 -1 -79 -4 -96 -8z m197 -68
c41 -24 78 -77 78 -112 0 -107 -171 -168 -296 -106 -27 13 -57 38 -67 54 -19
32 -22 82 -7 111 11 21 67 58 108 71 43 14 147 4 184 -18z"/>
<path d="M8669 1685 c-60 -19 -123 -79 -139 -132 -46 -154 159 -282 343 -213
82 31 137 97 137 165 0 139 -173 231 -341 180z m206 -66 c74 -36 103 -107 66
-166 -63 -101 -269 -103 -340 -4 -90 126 109 249 274 170z"/>
<path d="M1309 1625 c-25 -8 -63 -31 -86 -52 -129 -120 -37 -295 162 -311 139
-11 265 76 265 183 0 139 -174 231 -341 180z m207 -66 c41 -19 84 -78 84 -115
0 -34 -38 -83 -82 -106 -33 -17 -59 -22 -108 -22 -110 2 -190 58 -190 133 0
112 162 172 296 110z"/>
<path d="M6558 1627 c-96 -27 -167 -101 -168 -173 0 -58 52 -129 125 -167 60
-32 191 -31 259 2 140 69 140 255 0 321 -57 26 -154 34 -216 17z m200 -71 c80
-42 93 -135 28 -192 -98 -85 -270 -61 -324 46 -24 49 -22 72 12 108 60 67 195
85 284 38z"/>
<path d="M2920 1620 c-146 -31 -219 -162 -149 -265 49 -71 143 -111 244 -102
85 6 148 39 185 95 102 154 -65 317 -280 272z m188 -74 c80 -42 93 -135 28
-192 -20 -17 -54 -36 -77 -43 -72 -22 -187 6 -230 55 -25 29 -39 82 -30 107
35 90 202 129 309 73z"/>
<path d="M5099 1605 c-60 -19 -123 -79 -139 -132 -46 -154 159 -282 343 -213
82 31 137 97 137 165 0 139 -173 231 -341 180z m206 -66 c153 -73 79 -245
-105 -243 -110 2 -190 58 -190 133 0 112 164 173 295 110z"/>
<path d="M10321 1520 c-165 -35 -231 -185 -127 -291 55 -56 101 -74 196 -74
109 1 165 25 210 93 102 154 -65 317 -279 272z m187 -74 c80 -42 93 -135 28
-192 -20 -17 -54 -36 -77 -43 -72 -22 -187 6 -230 55 -25 29 -39 82 -30 107
35 90 202 129 309 73z"/>
<path d="M6048 1468 c-21 -5 -57 -28 -82 -49 -55 -48 -81 -112 -102 -248 -24
-158 -2 -444 41 -535 41 -86 138 -146 235 -146 79 0 132 25 222 106 46 41 121
101 168 134 111 77 123 88 150 133 25 43 30 128 10 169 -7 12 -99 109 -204
214 -170 170 -197 193 -249 212 -61 23 -127 27 -189 10z m187 -67 c25 -11 100
-78 205 -182 203 -203 210 -211 210 -264 0 -61 -32 -101 -135 -170 -49 -33
-126 -94 -171 -136 -133 -123 -227 -140 -332 -61 -69 52 -92 135 -99 355 -6
181 5 292 37 362 23 51 79 105 122 115 43 11 113 3 163 -19z"/>
<path d="M2392 1457 c-56 -17 -118 -81 -142 -144 -52 -140 -61 -401 -19 -597
33 -155 122 -236 261 -236 77 0 139 30 225 110 43 39 116 98 163 130 111 77
122 88 150 133 26 43 30 128 9 169 -6 12 -98 109 -203 214 -170 170 -197 193
-249 212 -62 24 -139 27 -195 9z m194 -67 c27 -12 96 -72 199 -176 210 -211
215 -217 215 -269 0 -61 -32 -101 -135 -170 -49 -33 -126 -94 -171 -136 -133
-123 -227 -140 -332 -61 -69 52 -92 135 -99 355 -8 253 15 364 90 436 57 54
141 62 233 21z"/>
<path d="M8334 1386 c-63 -20 -99 -45 -128 -90 -23 -34 -27 -49 -23 -93 5 -65
36 -108 108 -148 47 -26 64 -30 134 -29 95 0 159 26 205 82 101 122 -14 293
-195 291 -33 0 -78 -6 -101 -13z m158 -46 c48 -14 97 -55 114 -97 37 -88 -78
-180 -208 -166 -95 11 -175 85 -164 153 12 81 150 140 258 110z"/>
<path d="M9792 1357 c-56 -17 -118 -81 -142 -144 -48 -129 -59 -339 -29 -548
17 -113 35 -157 86 -208 51 -52 112 -77 183 -77 78 0 132 26 217 102 43 38
119 98 168 134 118 83 128 92 155 137 28 48 30 134 4 175 -9 15 -101 111 -203
213 -165 165 -193 188 -244 207 -62 24 -140 27 -195 9z m194 -66 c26 -12 100
-79 218 -199 99 -99 183 -186 187 -194 17 -26 10 -94 -14 -129 -12 -19 -63
-61 -112 -94 -49 -33 -126 -94 -171 -136 -133 -123 -227 -140 -332 -61 -69 52
-92 135 -99 355 -6 181 5 292 37 362 23 51 79 105 122 115 43 11 113 3 164
-19z"/>
<path d="M974 1326 c-59 -19 -95 -43 -127 -84 -26 -33 -28 -43 -25 -94 5 -70
35 -112 109 -153 46 -25 65 -29 129 -30 112 0 192 40 230 115 24 47 25 78 5
128 -34 81 -103 123 -210 129 -41 1 -87 -3 -111 -11z m158 -46 c48 -14 97 -55
114 -97 37 -88 -79 -180 -208 -166 -145 17 -217 147 -122 220 59 44 147 62
216 43z"/>
<path d="M6885 1321 c-120 -30 -188 -133 -150 -229 35 -85 119 -134 235 -135
88 -1 151 24 199 79 109 124 -2 296 -188 293 -37 -1 -79 -4 -96 -8z m197 -68
c18 -10 43 -34 55 -53 106 -156 -204 -270 -330 -121 -28 34 -36 86 -17 121 11
21 67 58 108 71 43 14 147 4 184 -18z"/>
<path d="M3235 1311 c-120 -30 -188 -133 -150 -229 35 -85 119 -134 235 -135
88 -1 151 24 199 79 109 124 -2 296 -188 293 -37 -1 -79 -4 -96 -8z m197 -68
c41 -24 78 -77 78 -112 0 -72 -88 -135 -187 -132 -133 3 -230 104 -183 191 11
21 67 58 108 71 43 14 147 4 184 -18z"/>
<path d="M4764 1306 c-98 -32 -146 -83 -151 -160 -5 -69 25 -120 96 -163 130
-78 311 -40 371 77 24 47 25 78 5 128 -34 81 -103 123 -210 129 -41 1 -87 -3
-111 -11z m158 -46 c48 -14 97 -55 114 -97 48 -113 -145 -213 -281 -145 -136
67 -118 197 33 238 59 16 87 17 134 4z"/>
<path d="M10635 1211 c-120 -30 -188 -133 -150 -229 34 -85 119 -134 235 -135
88 -2 150 23 199 78 109 125 -2 297 -188 294 -37 -1 -79 -4 -96 -8z m197 -68
c41 -24 78 -77 78 -112 0 -107 -171 -168 -296 -106 -27 13 -57 38 -67 54 -19
32 -22 82 -7 111 11 21 67 58 108 71 43 14 147 4 184 -18z"/>
<path d="M6839 915 c-25 -8 -63 -31 -86 -52 -129 -120 -37 -295 162 -311 139
-11 265 76 265 183 0 139 -174 231 -341 180z m206 -66 c74 -36 103 -107 66
-166 -63 -101 -270 -103 -340 -4 -90 126 109 249 274 170z"/>
<path d="M3189 905 c-60 -19 -123 -79 -139 -132 -46 -154 159 -282 343 -213
82 31 137 97 137 165 0 139 -173 231 -341 180z m207 -66 c41 -19 84 -78 84
-115 0 -34 -38 -83 -82 -105 -32 -17 -60 -23 -108 -22 -78 0 -130 22 -166 68
-96 127 101 254 272 174z"/>
<path d="M10589 805 c-60 -19 -123 -79 -139 -132 -46 -154 159 -282 343 -213
82 31 137 97 137 165 0 139 -173 231 -341 180z m206 -66 c74 -36 103 -107 66
-166 -63 -101 -269 -103 -340 -4 -90 126 109 249 274 170z"/>
<path d="M6504 616 c-56 -18 -94 -43 -124 -79 -21 -26 -25 -42 -25 -92 0 -76
27 -116 106 -160 46 -25 65 -29 129 -30 116 0 197 42 232 123 37 82 -4 177
-96 224 -51 26 -163 34 -222 14z m158 -46 c48 -14 97 -55 114 -97 37 -88 -79
-180 -208 -166 -145 17 -217 147 -122 220 59 44 147 62 216 43z"/>
<path d="M2854 606 c-98 -32 -146 -83 -151 -160 -5 -69 25 -120 96 -163 131
-78 311 -40 372 79 40 77 0 177 -90 227 -54 29 -164 38 -227 17z m158 -46 c48
-14 97 -55 114 -97 12 -28 12 -38 0 -67 -52 -124 -274 -135 -353 -17 -34 50
-30 87 13 127 56 53 148 75 226 54z"/>
<path d="M10254 506 c-63 -20 -99 -45 -128 -90 -23 -34 -27 -49 -23 -93 5 -65
36 -108 108 -148 47 -26 64 -30 134 -29 95 0 159 26 205 82 101 122 -14 293
-195 291 -33 0 -78 -6 -101 -13z m158 -46 c48 -14 97 -55 114 -97 37 -88 -78
-180 -208 -166 -95 11 -175 85 -164 153 12 81 150 140 258 110z"/>
</g>
</svg>
